Coordinates
version=1
nRows=29
nColumns=34
inDegrees=no

Units are S.I. units (second, meters, Newtons, ...)
If the header above contains a line with 'inDegrees', this indicates whether rotational values are in degrees (yes) or radians (no).

endheader
time	pelvis_tilt	pelvis_list	pelvis_rotation	pelvis_tx	pelvis_ty	pelvis_tz	hip_flexion_r	hip_adduction_r	hip_rotation_r	knee_angle_r	ankle_angle_r	subtalar_angle_r	mtp_angle_r	hip_flexion_l	hip_adduction_l	hip_rotation_l	knee_angle_l	ankle_angle_l	subtalar_angle_l	mtp_angle_l	lumbar_extension	lumbar_bending	lumbar_rotation	arm_flex_r	arm_add_r	arm_rot_r	elbow_flex_r	pro_sup_r	arm_flex_l	arm_add_l	arm_rot_l	elbow_flex_l	pro_sup_l
6.7	-0.468425	-0.146293	-0.0353426	-0.32745	0.642555	-0.470797	1.60829	-0.0190878	-0.19415	1.63152	0.547173	-0.235843	-0.100414	1.75883	-0.426402	0.325954	1.57178	0.508653	0.234307	-0.100414	-0.546316	0.105817	0.113889	1.31293	-0.485592	0.239117	2.19293	1.50219	1.16569	-0.463101	0.153246	2.25623	1.44495
6.71	-0.467829	-0.146026	-0.0351945	-0.327013	0.641579	-0.470717	1.60955	-0.0192567	-0.193759	1.63502	0.548727	-0.235657	-0.100414	1.76003	-0.426086	0.327173	1.57488	0.509989	0.234532	-0.100414	-0.546979	0.106344	0.114118	1.31029	-0.48511	0.237774	2.19344	1.50207	1.16378	-0.464023	0.151894	2.25519	1.44476
6.72	-0.467287	-0.145689	-0.0351026	-0.326555	0.640746	-0.470657	1.6105	-0.0195001	-0.193414	1.63808	0.550281	-0.235159	-0.100414	1.76092	-0.425975	0.328036	1.57759	0.511158	0.234819	-0.100414	-0.547361	0.106845	0.114273	1.30715	-0.484669	0.23628	2.19397	1.5021	1.16134	-0.46494	0.150331	2.25435	1.44382
6.73	-0.466739	-0.145216	-0.035085	-0.326081	0.640054	-0.470616	1.61111	-0.0197972	-0.193039	1.64074	0.551868	-0.234328	-0.100414	1.76141	-0.426088	0.32849	1.57995	0.512195	0.235158	-0.100414	-0.547554	0.107225	0.114366	1.30357	-0.484337	0.234662	2.19455	1.50241	1.15851	-0.465869	0.148647	2.25375	1.442
6.74	-0.466134	-0.144561	-0.0351417	-0.325592	0.6395	-0.470593	1.61136	-0.020132	-0.192564	1.64302	0.553509	-0.233178	-0.100414	1.76142	-0.426396	0.328513	1.58196	0.513137	0.2355	-0.100414	-0.547634	0.107423	0.114406	1.29961	-0.484181	0.23296	2.1952	1.50304	1.15539	-0.466811	0.146902	2.25338	1.43934
6.75	-0.465448	-0.143712	-0.0352591	-0.325092	0.639078	-0.47059	1.61125	-0.0204915	-0.191941	1.64494	0.5552	-0.231765	-0.100414	1.76091	-0.426831	0.328128	1.58365	0.51402	0.235771	-0.100414	-0.547643	0.107426	0.114398	1.29532	-0.484262	0.231227	2.19593	1.50392	1.15208	-0.467747	0.145126	2.25322	1.43604
6.76	-0.464684	-0.142696	-0.0354219	-0.324584	0.638778	-0.470609	1.6108	-0.0208561	-0.191163	1.6465	0.556916	-0.230183	-0.100414	1.75991	-0.427312	0.327412	1.58504	0.514872	0.235898	-0.100414	-0.54759	0.107267	0.114357	1.29076	-0.484624	0.229521	2.19676	1.50493	1.14864	-0.468646	0.143316	2.25323	1.43249
6.77	-0.463869	-0.141579	-0.0356218	-0.324072	0.638587	-0.470649	1.61007	-0.0211923	-0.190261	1.64773	0.558606	-0.228557	-0.100414	1.75848	-0.427766	0.32648	1.58616	0.515709	0.235826	-0.100414	-0.547449	0.107014	0.114306	1.28596	-0.485289	0.227894	2.19768	1.50586	1.1451	-0.469488	0.141453	2.25335	1.42911
6.78	-0.463042	-0.140438	-0.0358581	-0.323561	0.638493	-0.470707	1.60912	-0.0214555	-0.189287	1.64864	0.560205	-0.227027	-0.100414	1.75675	-0.428146	0.325462	1.58703	0.516538	0.235527	-0.100414	-0.547185	0.106739	0.114269	1.28098	-0.486253	0.226381	2.19867	1.50657	1.14149	-0.470277	0.139529	2.25356	1.42626
6.79	-0.462246	-0.139346	-0.0361318	-0.323054	0.638481	-0.470779	1.60802	-0.0216021	-0.188293	1.64925	0.561642	-0.225722	-0.100414	1.75482	-0.428422	0.324468	1.58769	0.517355	0.234993	-0.100414	-0.54676	0.106505	0.114254	1.27585	-0.48749	0.224989	2.19971	1.50701	1.13784	-0.471054	0.137553	2.25382	1.42417
6.8	-0.461515	-0.138358	-0.0364385	-0.322555	0.638539	-0.47086	1.60683	-0.0216034	-0.187321	1.64958	0.562854	-0.22474	-0.100414	1.75281	-0.428581	0.323577	1.58815	0.518148	0.234234	-0.100414	-0.546151	0.106353	0.114251	1.27061	-0.488962	0.223707	2.20076	1.50723	1.13418	-0.471882	0.135554	2.25415	1.42286
6.81	-0.460876	-0.137503	-0.0367658	-0.32207	0.638658	-0.470946	1.60561	-0.0214528	-0.186397	1.64965	0.563798	-0.224129	-0.100414	1.75077	-0.428617	0.322827	1.58843	0.518902	0.233272	-0.100414	-0.545351	0.106308	0.114231	1.2653	-0.490626	0.222514	2.20179	1.50729	1.13053	-0.472841	0.133574	2.25456	1.42221
6.82	-0.46034	-0.136793	-0.0370948	-0.321602	0.638831	-0.471036	1.60439	-0.0211637	-0.185535	1.6495	0.564453	-0.223891	-0.100414	1.74876	-0.428535	0.322221	1.58851	0.5196	0.232139	-0.100414	-0.544373	0.106375	0.114161	1.25998	-0.492447	0.221388	2.20279	1.50727	1.12695	-0.474	0.131659	2.25505	1.42201
6.83	-0.459906	-0.136223	-0.0374062	-0.321155	0.639051	-0.471127	1.6032	-0.020762	-0.184741	1.64916	0.564818	-0.223993	-0.100414	1.7468	-0.428351	0.321738	1.58841	0.520224	0.23088	-0.100414	-0.543249	0.106547	0.114015	1.25469	-0.494405	0.220318	2.20373	1.50718	1.12349	-0.475407	0.129858	2.25564	1.42203
6.84	-0.459557	-0.135781	-0.0376856	-0.320733	0.639315	-0.471217	1.60202	-0.0202769	-0.184018	1.64864	0.564914	-0.224377	-0.100414	1.74489	-0.428093	0.321345	1.58813	0.52076	0.229548	-0.100414	-0.542025	0.106806	0.113784	1.24949	-0.496499	0.219301	2.20461	1.50695	1.12021	-0.477082	0.128212	2.25627	1.4221
6.85	-0.459267	-0.135451	-0.0379276	-0.320338	0.63962	-0.471304	1.60083	-0.019734	-0.183369	1.64796	0.564778	-0.224969	-0.100414	1.74302	-0.427799	0.321007	1.58767	0.521199	0.228206	-0.100414	-0.540757	0.107127	0.113478	1.24442	-0.498746	0.218357	2.20543	1.50644	1.11719	-0.479013	0.126749	2.25688	1.42216
6.86	-0.459004	-0.135219	-0.0381353	-0.319972	0.639963	-0.471388	1.59962	-0.0191546	-0.182797	1.64713	0.564461	-0.225686	-0.100414	1.74117	-0.427515	0.32069	1.58705	0.52154	0.226913	-0.100414	-0.539499	0.107488	0.113121	1.23955	-0.501177	0.217523	2.20619	1.50551	1.11447	-0.48117	0.125479	2.2574	1.42225
6.87	-0.458744	-0.135074	-0.0383161	-0.319636	0.640341	-0.471469	1.59835	-0.0185604	-0.182315	1.64615	0.564025	-0.226448	-0.100414	1.73935	-0.427279	0.320373	1.58627	0.521791	0.225715	-0.100414	-0.5383	0.107872	0.112745	1.23494	-0.503835	0.216858	2.20688	1.50399	1.11211	-0.483509	0.1244	2.25775	1.42246
6.88	-0.45847	-0.135011	-0.0384754	-0.319334	0.64075	-0.471546	1.59701	-0.0179801	-0.181941	1.64504	0.563524	-0.227176	-0.100414	1.73754	-0.42711	0.32005	1.58537	0.521961	0.224638	-0.100414	-0.537196	0.108278	0.112381	1.23065	-0.50677	0.216428	2.20751	1.50186	1.11014	-0.485985	0.123505	2.25788	1.42287
6.89	-0.458185	-0.135036	-0.0386133	-0.319066	0.641186	-0.471623	1.59561	-0.0174516	-0.181706	1.64381	0.563007	-0.2278	-0.100414	1.73579	-0.427006	0.31973	1.58436	0.522062	0.223689	-0.100414	-0.536206	0.108718	0.112052	1.22677	-0.510025	0.216292	2.20805	1.49929	1.10856	-0.488556	0.12279	2.25778	1.42339
6.9	-0.457903	-0.135164	-0.038722	-0.318836	0.641642	-0.471701	1.59418	-0.0170209	-0.181644	1.64248	0.562509	-0.228264	-0.100414	1.73414	-0.426948	0.319436	1.58328	0.522098	0.222866	-0.100414	-0.535331	0.109216	0.111766	1.22336	-0.513635	0.216489	2.20847	1.49657	1.10738	-0.491188	0.122249	2.25749	1.42388
6.91	-0.457652	-0.135407	-0.0387848	-0.318646	0.64211	-0.471784	1.59275	-0.0167413	-0.181792	1.64108	0.562058	-0.228522	-0.100414	1.73264	-0.426902	0.319194	1.58216	0.522068	0.222165	-0.100414	-0.534556	0.109802	0.11151	1.22049	-0.517606	0.217033	2.20875	1.49399	1.1066	-0.493862	0.121875	2.25707	1.42418
6.92	-0.457471	-0.13578	-0.0387749	-0.3185	0.642585	-0.471873	1.59137	-0.0166742	-0.182177	1.63964	0.561678	-0.228536	-0.100414	1.73136	-0.426818	0.319029	1.581	0.521961	0.221576	-0.100414	-0.533852	0.110507	0.111241	1.2182	-0.521917	0.217921	2.20885	1.49177	1.10619	-0.496572	0.121644	2.2566	1.42411
6.93	-0.457408	-0.136288	-0.0386572	-0.318401	0.643056	-0.471972	1.59013	-0.0168862	-0.182819	1.63818	0.561382	-0.228279	-0.100414	1.73038	-0.426627	0.31896	1.57983	0.521761	0.221076	-0.100414	-0.533174	0.111363	0.110891	1.21655	-0.526516	0.219139	2.20877	1.49	1.10611	-0.49933	0.121519	2.25619	1.42351
6.94	-0.457507	-0.136935	-0.038396	-0.318349	0.643518	-0.472085	1.58906	-0.0174358	-0.183726	1.63674	0.561176	-0.227734	-0.100414	1.72973	-0.426259	0.319004	1.57867	0.521453	0.220633	-0.100414	-0.532476	0.112401	0.110383	1.21553	-0.53132	0.220665	2.20849	1.48869	1.10631	-0.502158	0.121439	2.25594	1.42225
6.95	-0.457787	-0.137716	-0.0379695	-0.318347	0.643966	-0.472215	1.5882	-0.0183486	-0.18489	1.63533	0.56105	-0.226911	-0.100414	1.72945	-0.425665	0.319165	1.5775	0.521028	0.220213	-0.100414	-0.531741	0.113644	0.109646	1.21516	-0.536219	0.222476	2.20799	1.48777	1.10672	-0.505077	0.121326	2.25593	1.42023
6.96	-0.458231	-0.138622	-0.0373867	-0.318392	0.644401	-0.472362	1.58755	-0.0195912	-0.186279	1.63396	0.560981	-0.225849	-0.100414	1.72948	-0.424847	0.319441	1.57634	0.52049	0.219796	-0.100414	-0.530993	0.115088	0.108655	1.21545	-0.541095	0.224531	2.20729	1.48716	1.10727	-0.508088	0.121106	2.2562	1.41742
6.97	-0.458791	-0.139629	-0.0366976	-0.31848	0.644828	-0.472519	1.58704	-0.0210594	-0.187843	1.63259	0.560935	-0.224622	-0.100414	1.72976	-0.423872	0.319815	1.57516	0.519861	0.21938	-0.100414	-0.530284	0.116689	0.107459	1.21631	-0.545856	0.226751	2.20639	1.48679	1.10792	-0.511139	0.12074	2.25671	1.41395
6.98	-0.459413	-0.14071	-0.0359857	-0.318605	0.645251	-0.472676	1.58661	-0.022596	-0.189514	1.63121	0.560871	-0.223326	-0.100414	1.73017	-0.422857	0.320265	1.57397	0.519177	0.218982	-0.100414	-0.529663	0.118361	0.106191	1.21763	-0.550466	0.229002	2.20535	1.48663	1.10865	-0.514106	0.120262	2.25738	1.41006
